<?xml version="1.0" encoding="utf-8"?>
<!-- Generator: Adobe Illustrator 21.0.0, SVG Export Plug-In . SVG Version: 6.00 Build 0)  -->
<svg version="1.1" xmlns="http://www.w3.org/2000/svg" xmlns:xlink="http://www.w3.org/1999/xlink" x="0px" y="0px"
	 viewBox="0 0 179 91" style="enable-background:new 0 0 179 91;" xml:space="preserve">
<style type="text/css">
	.st0{display:none;}
	.st1{display:inline;fill-rule:evenodd;clip-rule:evenodd;fill:#76BEAC;}
	.st2{display:inline;fill-rule:evenodd;clip-rule:evenodd;fill:#989798;}
	.st3{display:inline;}
	.st4{fill:#76BEAC;}
	.st5{fill:#989798;}
	.st6{fill:#FFFFFF;}
</style>
<g id="Camada_1" class="st0">
	<path class="st1" d="M98.5,1C86.1,1,76.1,11,76.1,23.4c0,0.2,0,0.4,0,0.6l0,0v31.6L105,44.7c9.2-2.8,15.8-11.3,15.8-21.4
		C120.9,11,110.8,1,98.5,1z M98.5,38.5c-8.4,0-15.1-6.8-15.1-15.1c0-8.4,6.8-15.1,15.1-15.1h0c8.4,0,15.1,6.8,15.1,15.1
		C113.6,31.7,106.9,38.5,98.5,38.5z"/>
	<path class="st2" d="M71.6,12.9h2.1c0.6,0,1,0.5,1,1v4.6h4.6c0.6,0,1,0.5,1,1v2.1c0,0.6-0.5,1-1,1l-4.6,0v4.6c0,0.6-0.5,1-1,1h-2.1
		c-0.6,0-1-0.5-1-1v-4.6H66c-0.6,0-1-0.5-1-1v-2.1c0-0.6,0.5-1,1-1h4.6v-4.6C70.6,13.3,71,12.9,71.6,12.9L71.6,12.9L71.6,12.9z"/>
	<g class="st3">
		<path class="st4" d="M8.4,90c-1.3,0-2.6-0.2-3.9-0.7c-1.3-0.4-2.4-1.1-3.5-2C1,87.2,1,87.1,1,87l2.2-2.6c0.1-0.1,0.2-0.1,0.3,0
			c0.8,0.6,1.6,1.1,2.4,1.4c0.8,0.4,1.7,0.5,2.6,0.5c0.7,0,1.3-0.1,1.7-0.4c0.4-0.2,0.5-0.6,0.5-1v0c0-0.2,0-0.4-0.1-0.5
			c-0.1-0.1-0.2-0.3-0.4-0.4c-0.2-0.1-0.6-0.3-1-0.5c-0.4-0.2-1-0.3-1.7-0.5c-0.9-0.2-1.7-0.4-2.4-0.7c-0.7-0.3-1.3-0.6-1.8-1
			c-0.5-0.4-0.9-0.9-1.2-1.5c-0.3-0.6-0.4-1.3-0.4-2.2v0c0-0.8,0.2-1.5,0.5-2.1c0.3-0.6,0.7-1.2,1.3-1.6c0.5-0.5,1.2-0.8,1.9-1.1
			c0.7-0.2,1.6-0.4,2.5-0.4c1.3,0,2.4,0.2,3.5,0.6c1.1,0.4,2.1,0.9,2.9,1.6c0.1,0.1,0.1,0.2,0,0.3l-1.9,2.8
			c-0.1,0.1-0.2,0.1-0.3,0.1c-0.7-0.5-1.5-0.9-2.2-1.2c-0.7-0.3-1.4-0.4-2.1-0.4c-0.7,0-1.2,0.1-1.5,0.4c-0.3,0.2-0.5,0.5-0.5,0.9v0
			c0,0.2,0,0.4,0.1,0.6c0.1,0.2,0.3,0.3,0.5,0.5c0.3,0.1,0.6,0.3,1.1,0.4c0.5,0.1,1.1,0.3,1.8,0.5c0.9,0.2,1.7,0.5,2.3,0.8
			c0.7,0.3,1.3,0.6,1.8,1c0.5,0.4,0.9,0.9,1.1,1.4c0.2,0.5,0.4,1.2,0.4,2v0c0,0.9-0.2,1.6-0.5,2.3c-0.3,0.7-0.8,1.2-1.3,1.7
			c-0.6,0.5-1.2,0.8-2,1C10.2,89.9,9.4,90,8.4,90z"/>
	</g>
	<g class="st3">
		<path class="st4" d="M21.4,89.8h-3.7c-0.1,0-0.2-0.1-0.2-0.2V72.9c0-0.1,0.1-0.2,0.2-0.2h3.7c0.1,0,0.2,0.1,0.2,0.2v16.6
			C21.6,89.7,21.5,89.8,21.4,89.8z"/>
	</g>
	<g class="st3">
		<path class="st4" d="M32.7,90.1c-1.3,0-2.6-0.2-3.7-0.7c-1.1-0.4-2.1-1.1-2.9-1.8c-0.8-0.8-1.4-1.7-1.9-2.8
			c-0.4-1.1-0.7-2.2-0.7-3.5v0c0-1.2,0.2-2.4,0.7-3.4c0.5-1.1,1.1-2,1.9-2.8c0.8-0.8,1.8-1.4,2.9-1.9c1.1-0.5,2.3-0.7,3.7-0.7
			c0.8,0,1.5,0.1,2.1,0.2c0.6,0.1,1.2,0.3,1.8,0.4c0.5,0.2,1.1,0.4,1.5,0.7c0.5,0.3,0.9,0.6,1.4,1c0,0,0.1,0.1,0.1,0.1
			c0,0.1,0,0.1,0,0.2l-2.4,2.8c-0.1,0.1-0.2,0.1-0.3,0c-0.3-0.3-0.6-0.5-1-0.7c-0.3-0.2-0.6-0.4-1-0.5c-0.3-0.1-0.7-0.2-1.1-0.3
			c-0.4-0.1-0.8-0.1-1.3-0.1c-0.6,0-1.3,0.1-1.8,0.4c-0.6,0.3-1.1,0.6-1.5,1.1c-0.4,0.4-0.8,1-1,1.6c-0.2,0.6-0.4,1.3-0.4,1.9v0
			c0,0.7,0.1,1.4,0.4,2c0.2,0.6,0.6,1.2,1,1.6c0.4,0.5,1,0.8,1.6,1.1c0.6,0.2,1.3,0.4,2,0.4c1.3,0,2.4-0.3,3.3-0.9v-2.1h-3.6
			c-0.1,0-0.2-0.1-0.2-0.2V80c0-0.1,0.1-0.2,0.2-0.2H40c0.1,0,0.2,0.1,0.2,0.2v7.2c0,0.1,0,0.1-0.1,0.2c-0.9,0.7-2,1.4-3.2,1.9
			C35.7,89.8,34.3,90.1,32.7,90.1z"/>
	</g>
	<g class="st3">
		<path class="st4" d="M51.2,90.1c-1.3,0-2.6-0.2-3.7-0.7c-1.1-0.5-2.1-1.1-2.9-1.9c-0.8-0.8-1.5-1.7-1.9-2.8
			c-0.5-1.1-0.7-2.2-0.7-3.4v0c0-1.2,0.2-2.4,0.7-3.4c0.5-1.1,1.1-2,1.9-2.8c0.8-0.8,1.8-1.4,2.9-1.9c1.1-0.5,2.4-0.7,3.7-0.7
			c1.3,0,2.6,0.2,3.7,0.7c1.1,0.5,2.1,1.1,2.9,1.9c0.8,0.8,1.5,1.7,1.9,2.8c0.5,1.1,0.7,2.2,0.7,3.4v0c0,1.2-0.2,2.4-0.7,3.4
			c-0.5,1.1-1.1,2-1.9,2.8c-0.8,0.8-1.8,1.4-2.9,1.9C53.8,89.8,52.5,90.1,51.2,90.1z M51.2,76.2c-0.7,0-1.4,0.1-2,0.4
			c-0.6,0.3-1.1,0.6-1.5,1.1c-0.4,0.5-0.8,1-1,1.6c-0.2,0.6-0.4,1.2-0.4,1.9v0c0,0.7,0.1,1.3,0.4,1.9c0.2,0.6,0.6,1.1,1,1.6
			c0.4,0.5,1,0.8,1.6,1.1c0.6,0.3,1.3,0.4,2,0.4c0.7,0,1.4-0.1,2-0.4c0.6-0.3,1.1-0.6,1.5-1.1c0.4-0.5,0.8-1,1-1.6
			c0.2-0.6,0.4-1.2,0.4-1.9v0c0-0.7-0.1-1.3-0.4-1.9c-0.2-0.6-0.6-1.1-1-1.6c-0.4-0.5-1-0.8-1.6-1.1C52.6,76.4,51.9,76.2,51.2,76.2z
			"/>
	</g>
	<g class="st3">
		<g>
			<path class="st5" d="M72.2,90.1c-1.3,0-2.4-0.2-3.5-0.7c-1.1-0.5-2-1.1-2.8-1.9c-0.8-0.8-1.4-1.7-1.8-2.8
				c-0.4-1.1-0.7-2.2-0.7-3.5c0-1.2,0.2-2.4,0.7-3.4c0.4-1.1,1.1-2,1.8-2.8c0.8-0.8,1.7-1.4,2.8-1.9c1.1-0.5,2.3-0.7,3.5-0.7
				c0.8,0,1.5,0.1,2.1,0.2c0.6,0.1,1.2,0.3,1.8,0.5c0.5,0.2,1.1,0.5,1.5,0.9c0.5,0.3,0.9,0.7,1.3,1.1c0,0,0.1,0.1,0.1,0.1
				c0,0.1,0,0.1-0.1,0.1l-1.3,1.4c-0.1,0.1-0.2,0.1-0.3,0c-0.7-0.7-1.5-1.2-2.3-1.6c-0.8-0.4-1.8-0.6-2.9-0.6
				c-0.9,0-1.8,0.2-2.5,0.5c-0.8,0.3-1.5,0.8-2,1.4c-0.6,0.6-1,1.3-1.3,2.1c-0.3,0.8-0.5,1.7-0.5,2.6c0,0.9,0.2,1.8,0.5,2.6
				c0.3,0.8,0.8,1.5,1.3,2.1c0.6,0.6,1.3,1.1,2,1.4c0.8,0.3,1.6,0.5,2.5,0.5c1.1,0,2.1-0.2,2.9-0.6c0.8-0.4,1.6-1,2.4-1.7
				c0.1-0.1,0.2-0.1,0.3,0l1.3,1.2c0,0,0.1,0.1,0.1,0.1c0,0.1,0,0.1-0.1,0.1c-0.4,0.4-0.9,0.9-1.4,1.2v0c-0.5,0.4-1,0.7-1.6,0.9
				c-0.6,0.3-1.2,0.5-1.8,0.6C73.7,90,73,90.1,72.2,90.1z M77.6,88.1L77.6,88.1L77.6,88.1z"/>
		</g>
	</g>
	<g class="st3">
		<g>
			<path class="st5" d="M93.4,89.8H81.9c-0.1,0-0.2-0.1-0.2-0.2V72.9c0-0.1,0.1-0.2,0.2-0.2h1.9c0.1,0,0.2,0.1,0.2,0.2v14.7h9.4
				c0.1,0,0.2,0.1,0.2,0.2v1.7C93.6,89.7,93.5,89.8,93.4,89.8z"/>
		</g>
	</g>
	<g class="st3">
		<g>
			<path class="st5" d="M118.4,89.8h-1.5c-0.1,0-0.1,0-0.2-0.1l-10.6-13.2v13.1c0,0.1-0.1,0.2-0.2,0.2H104c-0.1,0-0.2-0.1-0.2-0.2
				V72.9c0-0.1,0.1-0.2,0.2-0.2h1.8c0.1,0,0.1,0,0.2,0.1l10.4,12.9V72.9c0-0.1,0.1-0.2,0.2-0.2h1.9c0.1,0,0.2,0.1,0.2,0.2v16.6
				C118.6,89.7,118.6,89.8,118.4,89.8z"/>
		</g>
	</g>
	<g class="st3">
		<g>
			<path class="st5" d="M125.3,89.8h-1.9c-0.1,0-0.2-0.1-0.2-0.2V72.9c0-0.1,0.1-0.2,0.2-0.2h1.9c0.1,0,0.2,0.1,0.2,0.2v16.6
				C125.6,89.7,125.5,89.8,125.3,89.8z"/>
		</g>
	</g>
	<g class="st3">
		<g>
			<path class="st5" d="M99.8,89.8h-1.9c-0.1,0-0.2-0.1-0.2-0.2V74c0-0.1,0.1-0.2,0.2-0.2h1.9c0.1,0,0.2,0.1,0.2,0.2v15.5
				C100,89.7,99.9,89.8,99.8,89.8z"/>
		</g>
	</g>
	<g class="st3">
		<g>
			<path class="st5" d="M137.7,90.1c-1.3,0-2.4-0.2-3.5-0.7c-1.1-0.5-2-1.1-2.8-1.9c-0.8-0.8-1.4-1.7-1.8-2.8
				c-0.4-1.1-0.7-2.2-0.7-3.5c0-1.2,0.2-2.4,0.7-3.4c0.4-1.1,1.1-2,1.8-2.8c0.8-0.8,1.7-1.4,2.8-1.9c1.1-0.5,2.3-0.7,3.5-0.7
				c0.8,0,1.5,0.1,2.1,0.2c0.6,0.1,1.2,0.3,1.8,0.5c0.5,0.2,1.1,0.5,1.5,0.9c0.5,0.3,0.9,0.7,1.3,1.1c0,0,0.1,0.1,0.1,0.1
				c0,0.1,0,0.1-0.1,0.1l-1.3,1.4c-0.1,0.1-0.2,0.1-0.3,0c-0.7-0.6-1.5-1.2-2.3-1.6c-0.8-0.4-1.8-0.6-2.9-0.6
				c-0.9,0-1.8,0.2-2.5,0.5c-0.8,0.3-1.5,0.8-2,1.4c-0.6,0.6-1,1.3-1.3,2.1c-0.3,0.8-0.5,1.7-0.5,2.6c0,0.9,0.2,1.8,0.5,2.6
				c0.3,0.8,0.8,1.5,1.3,2.1c0.6,0.6,1.3,1.1,2,1.4c0.8,0.3,1.6,0.5,2.5,0.5c1.1,0,2.1-0.2,2.9-0.6c0.8-0.4,1.6-1,2.4-1.7
				c0.1-0.1,0.2-0.1,0.3,0l1.3,1.2c0,0,0.1,0.1,0.1,0.1c0,0.1,0,0.1-0.1,0.1c-0.4,0.4-0.9,0.9-1.4,1.2v0c-0.5,0.4-1,0.7-1.6,0.9
				c-0.6,0.3-1.2,0.5-1.8,0.6C139.2,90,138.5,90.1,137.7,90.1z M143.1,88.1L143.1,88.1L143.1,88.1z"/>
		</g>
	</g>
	<g class="st3">
		<g>
			<path class="st5" d="M163.3,89.8h-2.1c-0.1,0-0.2,0-0.2-0.1l-1.9-4.3h-9l-2,4.3c0,0.1-0.1,0.1-0.2,0.1h-2c-0.1,0-0.1,0-0.2-0.1
				c0-0.1,0-0.1,0-0.2l7.8-16.8c0-0.1,0.1-0.1,0.2-0.1h1.8c0.1,0,0.2,0,0.2,0.1l7.8,16.8c0,0.1,0,0.1,0,0.2
				C163.4,89.7,163.4,89.8,163.3,89.8z M151,83.3h7.1l-3.5-7.8L151,83.3z"/>
		</g>
	</g>
	<g class="st3">
		<g>
			<path class="st5" d="M171.8,90c-1.4,0-2.7-0.2-3.8-0.7c-1.1-0.4-2.2-1.1-3.3-2c-0.1-0.1-0.1-0.2,0-0.3l1.2-1.4
				c0,0,0.1-0.1,0.1-0.1c0.1,0,0.1,0,0.2,0.1c0.9,0.8,1.8,1.4,2.6,1.7c0.9,0.4,1.9,0.6,3.1,0.6c1.1,0,2-0.3,2.6-0.7
				c0.6-0.5,1-1.1,1-1.9c0-0.4-0.1-0.7-0.2-1c-0.1-0.3-0.3-0.5-0.6-0.8c-0.3-0.2-0.7-0.5-1.3-0.7c-0.6-0.2-1.3-0.4-2.2-0.6
				c-1-0.2-1.8-0.5-2.6-0.7c-0.7-0.3-1.4-0.6-1.8-1c-0.5-0.4-0.9-0.9-1.1-1.4c-0.2-0.5-0.4-1.2-0.4-1.9c0-0.7,0.1-1.3,0.4-1.9
				c0.3-0.6,0.7-1.1,1.2-1.5c0.5-0.4,1.1-0.7,1.8-1c0.7-0.2,1.5-0.4,2.3-0.4c1.3,0,2.4,0.2,3.3,0.5c0.9,0.3,1.9,0.9,2.8,1.5
				c0,0,0.1,0.1,0.1,0.1c0,0.1,0,0.1,0,0.2l-1.1,1.4c0,0-0.1,0.1-0.1,0.1c-0.1,0-0.1,0-0.2,0c-0.8-0.6-1.6-1.1-2.3-1.3
				c-0.8-0.3-1.6-0.4-2.4-0.4c-0.5,0-1,0.1-1.4,0.2c-0.4,0.1-0.8,0.3-1.1,0.5c-0.3,0.2-0.5,0.5-0.7,0.8c-0.2,0.3-0.2,0.6-0.2,1
				c0,0.4,0.1,0.7,0.2,1v0c0.1,0.3,0.3,0.5,0.6,0.8c0.3,0.2,0.8,0.5,1.4,0.7c0.6,0.2,1.4,0.4,2.3,0.6c1.9,0.4,3.4,1,4.3,1.8
				c0.9,0.8,1.4,1.8,1.4,3.2c0,0.7-0.2,1.4-0.5,2c-0.3,0.6-0.7,1.1-1.2,1.6c-0.5,0.4-1.2,0.8-1.9,1C173.4,89.9,172.6,90,171.8,90z"
				/>
		</g>
	</g>
	<g class="st3">
		<g>
			<g>
				<path class="st4" d="M98.6,34c-1.8-0.1-3.5-0.5-4.9-1.1c-1.5-0.7-2.7-1.6-3.7-2.7c-1-1.1-1.7-2.4-2.2-3.9
					c-0.5-1.4-0.7-2.9-0.6-4.5c0-0.9,0.8-1.7,1.7-1.6c0.9,0,1.7,0.8,1.6,1.7c0,1.2,0.1,2.3,0.4,3.3c0.3,1,0.8,1.9,1.5,2.7
					c0.7,0.8,1.5,1.4,2.6,1.9c1,0.5,2.3,0.8,3.6,0.8c1.4,0.1,2.6-0.1,3.7-0.5c1.1-0.4,2-1,2.7-1.7c0.7-0.7,1.7-0.6,2.4,0
					c0.7,0.7,0.6,1.7,0,2.4c-1.1,1-2.4,1.9-3.8,2.4C102.1,33.8,100.4,34.1,98.6,34z"/>
			</g>
		</g>
	</g>
	<g class="st3">
		<g>
			<circle class="st4" cx="95.6" cy="17.2" r="2"/>
		</g>
	</g>
	<g class="st3">
		<g>
			<circle class="st4" cx="105.1" cy="21.1" r="2"/>
		</g>
	</g>
	<g class="st3">
		<g>
			<path class="st5" d="M97.8,72.2c0-0.1,0-0.1,0.1-0.2l2-1.7c0,0,0.1-0.1,0.2,0l1.7,0.8c0.1,0,0.1,0.1,0.1,0.1c0,0.1,0,0.1-0.1,0.2
				l-2.2,1.7c0,0-0.1,0-0.1,0c0,0-0.1,0-0.1,0c-0.7-0.3-1.2-0.6-1.5-0.8C97.9,72.4,97.8,72.3,97.8,72.2z"/>
		</g>
	</g>
</g>
<g id="Camada_2">
	<path class="st6" d="M97.7,17.3c0,1.1-0.9,2-2,2c-1.1,0-2-0.9-2-2c0-1.1,0.9-2,2-2C96.8,15.2,97.7,16.2,97.7,17.3"/>
	<path class="st6" d="M8.5,90.5c-1.3,0-2.6-0.2-3.9-0.7c-1.3-0.4-2.5-1.1-3.5-2.1c-0.1-0.1-0.1-0.2,0-0.3l2.2-2.6
		c0.1-0.1,0.2-0.1,0.3,0c0.8,0.6,1.6,1.1,2.4,1.5c0.8,0.4,1.7,0.5,2.6,0.5c0.7,0,1.3-0.1,1.7-0.4c0.4-0.2,0.6-0.6,0.6-1v0
		c0-0.2,0-0.4-0.1-0.5c-0.1-0.1-0.2-0.3-0.4-0.4c-0.2-0.2-0.6-0.3-1-0.5c-0.4-0.2-1-0.3-1.7-0.5c-0.9-0.2-1.7-0.4-2.4-0.7
		c-0.7-0.3-1.3-0.6-1.8-1c-0.5-0.4-0.9-0.9-1.2-1.5c-0.3-0.6-0.4-1.3-0.4-2.2v0c0-0.8,0.2-1.5,0.5-2.2c0.3-0.6,0.7-1.2,1.3-1.7
		c0.5-0.5,1.2-0.8,2-1.1c0.7-0.2,1.6-0.4,2.5-0.4c1.3,0,2.5,0.2,3.5,0.6c1.1,0.4,2.1,0.9,3,1.6c0.1,0.1,0.1,0.2,0,0.3l-2,2.8
		c-0.1,0.1-0.2,0.1-0.3,0.1c-0.8-0.5-1.5-0.9-2.2-1.2c-0.7-0.3-1.4-0.4-2.1-0.4c-0.7,0-1.2,0.1-1.5,0.4c-0.3,0.2-0.5,0.5-0.5,0.9v0
		c0,0.2,0,0.4,0.1,0.6c0.1,0.2,0.3,0.3,0.5,0.5c0.3,0.2,0.6,0.3,1.1,0.4c0.5,0.1,1.1,0.3,1.8,0.5c0.9,0.2,1.7,0.5,2.3,0.8
		c0.7,0.3,1.3,0.6,1.8,1c0.5,0.4,0.9,0.9,1.1,1.4c0.2,0.6,0.4,1.2,0.4,2v0c0,0.9-0.2,1.6-0.5,2.3c-0.3,0.7-0.8,1.2-1.3,1.7
		c-0.6,0.5-1.3,0.8-2,1C10.3,90.4,9.4,90.5,8.5,90.5"/>
	<path class="st6" d="M21.6,90.3h-3.8c-0.1,0-0.2-0.1-0.2-0.2V73.3c0-0.1,0.1-0.2,0.2-0.2h3.8c0.1,0,0.2,0.1,0.2,0.2v16.8
		C21.8,90.2,21.7,90.3,21.6,90.3"/>
	<path class="st6" d="M32.9,90.6c-1.4,0-2.6-0.2-3.7-0.7c-1.1-0.4-2.1-1.1-2.9-1.8c-0.8-0.8-1.4-1.7-1.9-2.8
		c-0.4-1.1-0.7-2.3-0.7-3.5v0c0-1.2,0.2-2.4,0.7-3.4c0.5-1.1,1.1-2,1.9-2.8c0.8-0.8,1.8-1.4,2.9-1.9c1.1-0.5,2.4-0.7,3.7-0.7
		c0.8,0,1.5,0.1,2.1,0.2c0.6,0.1,1.2,0.3,1.8,0.5c0.5,0.2,1.1,0.4,1.6,0.7c0.5,0.3,0.9,0.6,1.4,1c0,0,0.1,0.1,0.1,0.1
		c0,0.1,0,0.1,0,0.2l-2.4,2.8c-0.1,0.1-0.2,0.1-0.3,0c-0.3-0.3-0.6-0.5-1-0.7c-0.3-0.2-0.6-0.4-1-0.5c-0.3-0.1-0.7-0.2-1.1-0.3
		c-0.4-0.1-0.8-0.1-1.3-0.1c-0.7,0-1.3,0.1-1.8,0.4c-0.6,0.3-1.1,0.6-1.5,1.1c-0.4,0.5-0.8,1-1,1.6c-0.2,0.6-0.4,1.3-0.4,1.9v0
		c0,0.7,0.1,1.4,0.4,2c0.2,0.6,0.6,1.2,1,1.6c0.4,0.5,1,0.8,1.6,1.1c0.6,0.2,1.3,0.4,2,0.4c1.3,0,2.4-0.3,3.3-0.9v-2.1h-3.6
		c-0.1,0-0.2-0.1-0.2-0.2v-3.2c0-0.1,0.1-0.2,0.2-0.2h7.4c0.1,0,0.2,0.1,0.2,0.2v7.3c0,0.1,0,0.1-0.1,0.2c-0.9,0.7-2,1.4-3.2,1.9
		C36,90.3,34.5,90.6,32.9,90.6"/>
	<path class="st6" d="M51.5,90.6c-1.3,0-2.6-0.2-3.7-0.7c-1.1-0.5-2.1-1.1-2.9-1.9c-0.8-0.8-1.5-1.7-1.9-2.8
		c-0.5-1.1-0.7-2.2-0.7-3.4v0c0-1.2,0.2-2.4,0.7-3.4c0.5-1.1,1.1-2,1.9-2.8c0.8-0.8,1.8-1.5,3-1.9c1.1-0.5,2.4-0.7,3.7-0.7
		c1.3,0,2.6,0.2,3.7,0.7c1.1,0.5,2.1,1.1,2.9,1.9c0.8,0.8,1.5,1.7,1.9,2.8c0.5,1.1,0.7,2.2,0.7,3.4v0c0,1.2-0.2,2.4-0.7,3.4
		c-0.5,1.1-1.1,2-1.9,2.8c-0.8,0.8-1.8,1.4-3,1.9C54.1,90.3,52.9,90.6,51.5,90.6 M51.5,76.7c-0.7,0-1.4,0.1-2,0.4
		c-0.6,0.3-1.1,0.6-1.5,1.1c-0.4,0.5-0.8,1-1,1.6c-0.2,0.6-0.4,1.3-0.4,1.9v0c0,0.7,0.1,1.3,0.4,2c0.2,0.6,0.6,1.2,1,1.6
		c0.4,0.5,1,0.8,1.6,1.1c0.6,0.3,1.3,0.4,2,0.4c0.7,0,1.4-0.1,2-0.4c0.6-0.3,1.1-0.6,1.6-1.1c0.4-0.5,0.8-1,1-1.6
		c0.2-0.6,0.4-1.3,0.4-1.9v0c0-0.7-0.1-1.3-0.4-2c-0.2-0.6-0.6-1.2-1-1.6c-0.4-0.5-1-0.8-1.6-1.1C52.9,76.8,52.2,76.7,51.5,76.7"/>
	<path class="st5" d="M72.7,90.6c-1.3,0-2.4-0.2-3.5-0.7c-1.1-0.5-2-1.1-2.8-1.9c-0.8-0.8-1.4-1.7-1.8-2.8c-0.4-1.1-0.7-2.2-0.7-3.5
		c0-1.2,0.2-2.4,0.7-3.5c0.4-1.1,1.1-2,1.8-2.8c0.8-0.8,1.7-1.5,2.8-1.9c1.1-0.5,2.3-0.7,3.6-0.7c0.8,0,1.5,0.1,2.2,0.2
		c0.6,0.1,1.2,0.3,1.8,0.5c0.5,0.2,1.1,0.5,1.5,0.9c0.5,0.3,0.9,0.7,1.3,1.1c0,0,0.1,0.1,0.1,0.1c0,0.1,0,0.1-0.1,0.2l-1.3,1.4
		c-0.1,0.1-0.2,0.1-0.3,0c-0.7-0.7-1.5-1.2-2.3-1.6c-0.8-0.4-1.8-0.6-2.9-0.6c-0.9,0-1.8,0.2-2.5,0.5c-0.8,0.3-1.5,0.8-2,1.4
		c-0.6,0.6-1,1.3-1.4,2.1c-0.3,0.8-0.5,1.7-0.5,2.6c0,0.9,0.2,1.8,0.5,2.7c0.3,0.8,0.8,1.5,1.4,2.1c0.6,0.6,1.3,1.1,2,1.4
		c0.8,0.3,1.6,0.5,2.5,0.5c1.1,0,2.1-0.2,2.9-0.6c0.8-0.4,1.6-1,2.4-1.7c0.1-0.1,0.2-0.1,0.3,0l1.3,1.2c0,0,0.1,0.1,0.1,0.1
		c0,0.1,0,0.1-0.1,0.1c-0.4,0.4-0.9,0.9-1.4,1.2c-0.5,0.4-1,0.7-1.6,0.9c-0.6,0.3-1.2,0.5-1.8,0.6C74.2,90.5,73.5,90.6,72.7,90.6
		 M78.2,88.6L78.2,88.6L78.2,88.6z"/>
	<path class="st5" d="M94.1,90.3H82.5c-0.1,0-0.2-0.1-0.2-0.2V73.3c0-0.1,0.1-0.2,0.2-0.2h1.9c0.1,0,0.2,0.1,0.2,0.2v14.8h9.4
		c0.1,0,0.2,0.1,0.2,0.2v1.7C94.3,90.2,94.2,90.3,94.1,90.3"/>
	<path class="st5" d="M119.3,90.3h-1.5c-0.1,0-0.1,0-0.2-0.1l-10.7-13.3v13.1c0,0.1-0.1,0.2-0.2,0.2h-1.9c-0.1,0-0.2-0.1-0.2-0.2
		V73.3c0-0.1,0.1-0.2,0.2-0.2h1.8c0.1,0,0.1,0,0.2,0.1l10.4,13V73.3c0-0.1,0.1-0.2,0.2-0.2h1.9c0.1,0,0.2,0.1,0.2,0.2v16.8
		C119.5,90.2,119.4,90.3,119.3,90.3"/>
	<path class="st5" d="M126.2,90.3h-1.9c-0.1,0-0.2-0.1-0.2-0.2V73.3c0-0.1,0.1-0.2,0.2-0.2h1.9c0.1,0,0.2,0.1,0.2,0.2v16.8
		C126.4,90.2,126.3,90.3,126.2,90.3"/>
	<path class="st5" d="M100.5,90.3h-1.9c-0.1,0-0.2-0.1-0.2-0.2V74.4c0-0.1,0.1-0.2,0.2-0.2h1.9c0.1,0,0.2,0.1,0.2,0.2v15.7
		C100.7,90.2,100.6,90.3,100.5,90.3"/>
	<path class="st5" d="M138.7,90.6c-1.3,0-2.4-0.2-3.5-0.7c-1.1-0.5-2-1.1-2.8-1.9c-0.8-0.8-1.4-1.7-1.8-2.8
		c-0.4-1.1-0.7-2.2-0.7-3.5c0-1.2,0.2-2.4,0.7-3.5c0.4-1.1,1.1-2,1.8-2.8c0.8-0.8,1.7-1.5,2.8-1.9c1.1-0.5,2.3-0.7,3.6-0.7
		c0.8,0,1.5,0.1,2.2,0.2c0.6,0.1,1.2,0.3,1.8,0.6c0.5,0.2,1.1,0.5,1.5,0.9c0.5,0.3,0.9,0.7,1.3,1.1c0,0,0.1,0.1,0.1,0.1
		c0,0.1,0,0.1-0.1,0.2l-1.3,1.4c-0.1,0.1-0.2,0.1-0.3,0c-0.7-0.7-1.5-1.2-2.3-1.6c-0.8-0.4-1.8-0.6-2.9-0.6c-0.9,0-1.8,0.2-2.5,0.5
		c-0.8,0.3-1.5,0.8-2,1.4c-0.6,0.6-1,1.3-1.4,2.1c-0.3,0.8-0.5,1.7-0.5,2.6s0.2,1.8,0.5,2.7c0.3,0.8,0.8,1.5,1.4,2.1
		c0.6,0.6,1.3,1.1,2,1.4c0.8,0.3,1.6,0.5,2.5,0.5c1.1,0,2.1-0.2,2.9-0.6c0.8-0.4,1.6-1,2.4-1.7c0.1-0.1,0.2-0.1,0.3,0l1.3,1.2
		c0,0,0.1,0.1,0.1,0.1c0,0.1,0,0.1-0.1,0.1c-0.4,0.5-0.9,0.9-1.4,1.2c-0.5,0.4-1,0.7-1.6,0.9c-0.6,0.3-1.2,0.5-1.8,0.6
		C140.2,90.5,139.5,90.6,138.7,90.6 M144.1,88.6L144.1,88.6L144.1,88.6z"/>
	<path class="st5" d="M164.4,90.3h-2.1c-0.1,0-0.2,0-0.2-0.1l-2-4.3h-9.1l-2,4.3c0,0.1-0.1,0.1-0.2,0.1h-2c-0.1,0-0.1,0-0.2-0.1
		c0-0.1,0-0.1,0-0.2l7.8-16.9c0-0.1,0.1-0.1,0.2-0.1h1.8c0.1,0,0.2,0,0.2,0.1l7.8,16.9c0,0.1,0,0.1,0,0.2
		C164.6,90.3,164.5,90.3,164.4,90.3 M152.1,83.8h7.2l-3.6-7.8L152.1,83.8z"/>
	<path class="st5" d="M173,90.5c-1.4,0-2.7-0.2-3.8-0.7c-1.2-0.4-2.3-1.1-3.3-2c-0.1-0.1-0.1-0.2,0-0.3l1.2-1.4c0,0,0.1-0.1,0.1-0.1
		c0.1,0,0.1,0,0.2,0.1c0.9,0.8,1.8,1.4,2.7,1.7c0.9,0.4,1.9,0.6,3.1,0.6c1.1,0,2-0.3,2.7-0.7c0.6-0.5,1-1.1,1-1.9
		c0-0.4-0.1-0.7-0.2-1c-0.1-0.3-0.3-0.5-0.6-0.8c-0.3-0.2-0.7-0.5-1.3-0.7c-0.6-0.2-1.3-0.4-2.2-0.6c-1-0.2-1.9-0.5-2.6-0.7
		c-0.7-0.3-1.4-0.6-1.9-1c-0.5-0.4-0.9-0.9-1.1-1.4c-0.2-0.5-0.4-1.2-0.4-1.9c0-0.7,0.1-1.4,0.4-1.9c0.3-0.6,0.7-1.1,1.2-1.5
		c0.5-0.4,1.1-0.8,1.9-1c0.7-0.2,1.5-0.4,2.3-0.4c1.3,0,2.4,0.2,3.4,0.5c1,0.3,1.9,0.9,2.8,1.6c0,0,0.1,0.1,0.1,0.1
		c0,0.1,0,0.1,0,0.2l-1.1,1.5c0,0-0.1,0.1-0.1,0.1c-0.1,0-0.1,0-0.2,0c-0.8-0.6-1.6-1.1-2.4-1.4c-0.8-0.3-1.6-0.4-2.5-0.4
		c-0.5,0-1,0.1-1.4,0.2c-0.4,0.1-0.8,0.3-1.1,0.5c-0.3,0.2-0.5,0.5-0.7,0.8c-0.2,0.3-0.2,0.6-0.2,1c0,0.4,0.1,0.7,0.2,1
		c0.1,0.3,0.3,0.5,0.6,0.8c0.3,0.2,0.8,0.5,1.4,0.7c0.6,0.2,1.4,0.4,2.3,0.6c1.9,0.4,3.4,1,4.3,1.8c1,0.8,1.4,1.9,1.4,3.2
		c0,0.7-0.2,1.4-0.5,2.1c-0.3,0.6-0.7,1.1-1.3,1.6c-0.5,0.4-1.2,0.8-1.9,1C174.6,90.4,173.8,90.5,173,90.5"/>
	<path class="st5" d="M98.5,72.6c0-0.1,0-0.1,0.1-0.2l2-1.7c0,0,0.1-0.1,0.2,0l1.7,0.8c0.1,0,0.1,0.1,0.1,0.1c0,0.1,0,0.1-0.1,0.2
		l-2.2,1.7c0,0-0.1,0-0.1,0c0,0-0.1,0-0.1,0c-0.7-0.3-1.2-0.6-1.5-0.8C98.6,72.8,98.5,72.7,98.5,72.6"/>
	<path class="st6" d="M98.6,1C88,1,79.1,8.3,76.7,18.2h2.5c0.8,0,1.4,0.6,1.4,1.4v2.1c0,0.8-0.6,1.4-1.4,1.4h-3.2c0,0.1,0,0.2,0,0.3
		c0,0.2,0,0.4,0,0.6l0,0V56l29.1-10.9c9.2-2.8,15.9-11.4,15.9-21.5C121.1,11.1,111,1,98.6,1 M98.6,38.8c-8.4,0-15.2-6.8-15.2-15.2
		c0-8.4,6.8-15.2,15.2-15.2c8.4,0,15.2,6.8,15.2,15.2C113.8,31.9,107,38.8,98.6,38.8"/>
	<path class="st5" d="M74.6,19c-0.2,0-0.4-0.2-0.4-0.4V14c0-0.4-0.3-0.6-0.6-0.6h-2.1c-0.4,0-0.6,0.3-0.6,0.6v4.6
		c0,0.2-0.2,0.4-0.4,0.4h-4.6c-0.4,0-0.6,0.3-0.6,0.6v2.1c0,0.4,0.3,0.6,0.6,0.6h4.6c0.2,0,0.4,0.2,0.4,0.4v4.6
		c0,0.3,0.3,0.6,0.6,0.6h2.1c0.4,0,0.6-0.3,0.6-0.6v-4.6c0-0.2,0.2-0.4,0.4-0.4h1.5c0.1-1.1,0.2-2.3,0.4-3.4H74.6z"/>
	<path class="st5" d="M79.9,21.7v-2.1c0-0.4-0.3-0.6-0.6-0.6h-2.7c-0.2,1.1-0.3,2.2-0.4,3.4h3.1C79.6,22.4,79.9,22.1,79.9,21.7"/>
	<path class="st6" d="M105.2,28.6c-0.7,0.7-1.6,1.3-2.7,1.7c-1.1,0.4-2.3,0.6-3.7,0.5c-1.4-0.1-2.6-0.3-3.7-0.8
		c-1-0.5-1.9-1.1-2.6-1.9c-0.7-0.8-1.2-1.7-1.5-2.7c-0.3-1-0.5-2.2-0.4-3.4c0-0.9-0.7-1.7-1.6-1.8c-0.9,0-1.7,0.7-1.8,1.6
		c-0.1,1.6,0.1,3.1,0.6,4.5c0.5,1.5,1.2,2.8,2.2,3.9c1,1.1,2.2,2,3.7,2.7c1.5,0.7,3.1,1.1,5,1.1c1.8,0.1,3.5-0.2,5-0.8
		c1.5-0.6,2.8-1.4,3.9-2.4c0.7-0.7,0.7-1.7,0-2.4C107,28,105.9,28,105.2,28.6"/>
	<path class="st6" d="M107.3,21.3c0,1.1-0.9,2-2,2c-1.1,0-2-0.9-2-2c0-1.1,0.9-2,2-2C106.4,19.2,107.3,20.1,107.3,21.3"/>
</g>
</svg>
