<?xml version="1.0" encoding="utf-8"?>
<!-- Generator: Adobe Illustrator 21.0.0, SVG Export Plug-In . SVG Version: 6.00 Build 0)  -->
<svg version="1.1" id="Camada_1" xmlns="http://www.w3.org/2000/svg" xmlns:xlink="http://www.w3.org/1999/xlink" x="0px" y="0px"
	 viewBox="0 0 179 91" style="enable-background:new 0 0 179 91;" xml:space="preserve">
<style type="text/css">
	.st0{fill-rule:evenodd;clip-rule:evenodd;fill:#76BEAC;}
	.st1{fill-rule:evenodd;clip-rule:evenodd;fill:#989798;}
	.st2{fill:#76BEAC;}
	.st3{fill:#989798;}
</style>
<path class="st0" d="M98.5,1C86.1,1,76.1,11,76.1,23.4c0,0.2,0,0.4,0,0.6l0,0v31.6L105,44.7c9.2-2.8,15.8-11.3,15.8-21.4
	C120.9,11,110.8,1,98.5,1z M98.5,38.5c-8.4,0-15.1-6.8-15.1-15.1c0-8.4,6.8-15.1,15.1-15.1h0c8.4,0,15.1,6.8,15.1,15.1
	C113.6,31.7,106.9,38.5,98.5,38.5z"/>
<path class="st1" d="M71.6,12.9h2.1c0.6,0,1,0.5,1,1v4.6h4.6c0.6,0,1,0.5,1,1v2.1c0,0.6-0.5,1-1,1l-4.6,0v4.6c0,0.6-0.5,1-1,1h-2.1
	c-0.6,0-1-0.5-1-1v-4.6H66c-0.6,0-1-0.5-1-1v-2.1c0-0.6,0.5-1,1-1h4.6v-4.6C70.6,13.3,71,12.9,71.6,12.9L71.6,12.9L71.6,12.9z"/>
<g>
	<path class="st2" d="M8.4,90c-1.3,0-2.6-0.2-3.9-0.7c-1.3-0.4-2.4-1.1-3.5-2C1,87.2,1,87.1,1,87l2.2-2.6c0.1-0.1,0.2-0.1,0.3,0
		c0.8,0.6,1.6,1.1,2.4,1.4c0.8,0.4,1.7,0.5,2.6,0.5c0.7,0,1.3-0.1,1.7-0.4c0.4-0.2,0.5-0.6,0.5-1v0c0-0.2,0-0.4-0.1-0.5
		c-0.1-0.1-0.2-0.3-0.4-0.4c-0.2-0.1-0.6-0.3-1-0.5c-0.4-0.2-1-0.3-1.7-0.5c-0.9-0.2-1.7-0.4-2.4-0.7c-0.7-0.3-1.3-0.6-1.8-1
		c-0.5-0.4-0.9-0.9-1.2-1.5c-0.3-0.6-0.4-1.3-0.4-2.2v0c0-0.8,0.2-1.5,0.5-2.1c0.3-0.6,0.7-1.2,1.3-1.6c0.5-0.5,1.2-0.8,1.9-1.1
		c0.7-0.2,1.6-0.4,2.5-0.4c1.3,0,2.4,0.2,3.5,0.6c1.1,0.4,2.1,0.9,2.9,1.6c0.1,0.1,0.1,0.2,0,0.3l-1.9,2.8c-0.1,0.1-0.2,0.1-0.3,0.1
		c-0.7-0.5-1.5-0.9-2.2-1.2c-0.7-0.3-1.4-0.4-2.1-0.4c-0.7,0-1.2,0.1-1.5,0.4c-0.3,0.2-0.5,0.5-0.5,0.9v0c0,0.2,0,0.4,0.1,0.6
		c0.1,0.2,0.3,0.3,0.5,0.5c0.3,0.1,0.6,0.3,1.1,0.4c0.5,0.1,1.1,0.3,1.8,0.5c0.9,0.2,1.7,0.5,2.3,0.8c0.7,0.3,1.3,0.6,1.8,1
		c0.5,0.4,0.9,0.9,1.1,1.4c0.2,0.5,0.4,1.2,0.4,2v0c0,0.9-0.2,1.6-0.5,2.3c-0.3,0.7-0.8,1.2-1.3,1.7c-0.6,0.5-1.2,0.8-2,1
		C10.2,89.9,9.4,90,8.4,90z"/>
</g>
<g>
	<path class="st2" d="M21.4,89.8h-3.7c-0.1,0-0.2-0.1-0.2-0.2V72.9c0-0.1,0.1-0.2,0.2-0.2h3.7c0.1,0,0.2,0.1,0.2,0.2v16.6
		C21.6,89.7,21.5,89.8,21.4,89.8z"/>
</g>
<g>
	<path class="st2" d="M32.7,90.1c-1.3,0-2.6-0.2-3.7-0.7c-1.1-0.4-2.1-1.1-2.9-1.8c-0.8-0.8-1.4-1.7-1.9-2.8
		c-0.4-1.1-0.7-2.2-0.7-3.5v0c0-1.2,0.2-2.4,0.7-3.4c0.5-1.1,1.1-2,1.9-2.8c0.8-0.8,1.8-1.4,2.9-1.9c1.1-0.5,2.3-0.7,3.7-0.7
		c0.8,0,1.5,0.1,2.1,0.2c0.6,0.1,1.2,0.3,1.8,0.4c0.5,0.2,1.1,0.4,1.5,0.7c0.5,0.3,0.9,0.6,1.4,1c0,0,0.1,0.1,0.1,0.1
		c0,0.1,0,0.1,0,0.2l-2.4,2.8c-0.1,0.1-0.2,0.1-0.3,0c-0.3-0.3-0.6-0.5-1-0.7c-0.3-0.2-0.6-0.4-1-0.5c-0.3-0.1-0.7-0.2-1.1-0.3
		c-0.4-0.1-0.8-0.1-1.3-0.1c-0.6,0-1.3,0.1-1.8,0.4c-0.6,0.3-1.1,0.6-1.5,1.1c-0.4,0.4-0.8,1-1,1.6c-0.2,0.6-0.4,1.3-0.4,1.9v0
		c0,0.7,0.1,1.4,0.4,2c0.2,0.6,0.6,1.2,1,1.6c0.4,0.5,1,0.8,1.6,1.1c0.6,0.2,1.3,0.4,2,0.4c1.3,0,2.4-0.3,3.3-0.9v-2.1h-3.6
		c-0.1,0-0.2-0.1-0.2-0.2V80c0-0.1,0.1-0.2,0.2-0.2H40c0.1,0,0.2,0.1,0.2,0.2v7.2c0,0.1,0,0.1-0.1,0.2c-0.9,0.7-2,1.4-3.2,1.9
		C35.7,89.8,34.3,90.1,32.7,90.1z"/>
</g>
<g>
	<path class="st2" d="M51.2,90.1c-1.3,0-2.6-0.2-3.7-0.7c-1.1-0.5-2.1-1.1-2.9-1.9c-0.8-0.8-1.5-1.7-1.9-2.8
		c-0.5-1.1-0.7-2.2-0.7-3.4v0c0-1.2,0.2-2.4,0.7-3.4c0.5-1.1,1.1-2,1.9-2.8c0.8-0.8,1.8-1.4,2.9-1.9c1.1-0.5,2.4-0.7,3.7-0.7
		c1.3,0,2.6,0.2,3.7,0.7c1.1,0.5,2.1,1.1,2.9,1.9c0.8,0.8,1.5,1.7,1.9,2.8c0.5,1.1,0.7,2.2,0.7,3.4v0c0,1.2-0.2,2.4-0.7,3.4
		c-0.5,1.1-1.1,2-1.9,2.8c-0.8,0.8-1.8,1.4-2.9,1.9C53.8,89.8,52.5,90.1,51.2,90.1z M51.2,76.2c-0.7,0-1.4,0.1-2,0.4
		c-0.6,0.3-1.1,0.6-1.5,1.1c-0.4,0.5-0.8,1-1,1.6c-0.2,0.6-0.4,1.2-0.4,1.9v0c0,0.7,0.1,1.3,0.4,1.9c0.2,0.6,0.6,1.1,1,1.6
		c0.4,0.5,1,0.8,1.6,1.1c0.6,0.3,1.3,0.4,2,0.4c0.7,0,1.4-0.1,2-0.4c0.6-0.3,1.1-0.6,1.5-1.1c0.4-0.5,0.8-1,1-1.6
		c0.2-0.6,0.4-1.2,0.4-1.9v0c0-0.7-0.1-1.3-0.4-1.9c-0.2-0.6-0.6-1.1-1-1.6c-0.4-0.5-1-0.8-1.6-1.1C52.6,76.4,51.9,76.2,51.2,76.2z"
		/>
</g>
<g>
	<g>
		<path class="st3" d="M72.2,90.1c-1.3,0-2.4-0.2-3.5-0.7c-1.1-0.5-2-1.1-2.8-1.9c-0.8-0.8-1.4-1.7-1.8-2.8
			c-0.4-1.1-0.7-2.2-0.7-3.5c0-1.2,0.2-2.4,0.7-3.4c0.4-1.1,1.1-2,1.8-2.8c0.8-0.8,1.7-1.4,2.8-1.9c1.1-0.5,2.3-0.7,3.5-0.7
			c0.8,0,1.5,0.1,2.1,0.2c0.6,0.1,1.2,0.3,1.8,0.5c0.5,0.2,1.1,0.5,1.5,0.9c0.5,0.3,0.9,0.7,1.3,1.1c0,0,0.1,0.1,0.1,0.1
			c0,0.1,0,0.1-0.1,0.1l-1.3,1.4c-0.1,0.1-0.2,0.1-0.3,0c-0.7-0.7-1.5-1.2-2.3-1.6c-0.8-0.4-1.8-0.6-2.9-0.6c-0.9,0-1.8,0.2-2.5,0.5
			c-0.8,0.3-1.5,0.8-2,1.4c-0.6,0.6-1,1.3-1.3,2.1c-0.3,0.8-0.5,1.7-0.5,2.6c0,0.9,0.2,1.8,0.5,2.6c0.3,0.8,0.8,1.5,1.3,2.1
			c0.6,0.6,1.3,1.1,2,1.4c0.8,0.3,1.6,0.5,2.5,0.5c1.1,0,2.1-0.2,2.9-0.6c0.8-0.4,1.6-1,2.4-1.7c0.1-0.1,0.2-0.1,0.3,0l1.3,1.2
			c0,0,0.1,0.1,0.1,0.1c0,0.1,0,0.1-0.1,0.1c-0.4,0.4-0.9,0.9-1.4,1.2v0c-0.5,0.4-1,0.7-1.6,0.9c-0.6,0.3-1.2,0.5-1.8,0.6
			C73.7,90,73,90.1,72.2,90.1z M77.6,88.1L77.6,88.1L77.6,88.1z"/>
	</g>
</g>
<g>
	<g>
		<path class="st3" d="M93.4,89.8H81.9c-0.1,0-0.2-0.1-0.2-0.2V72.9c0-0.1,0.1-0.2,0.2-0.2h1.9c0.1,0,0.2,0.1,0.2,0.2v14.7h9.4
			c0.1,0,0.2,0.1,0.2,0.2v1.7C93.6,89.7,93.5,89.8,93.4,89.8z"/>
	</g>
</g>
<g>
	<g>
		<path class="st3" d="M118.4,89.8h-1.5c-0.1,0-0.1,0-0.2-0.1l-10.6-13.2v13.1c0,0.1-0.1,0.2-0.2,0.2H104c-0.1,0-0.2-0.1-0.2-0.2
			V72.9c0-0.1,0.1-0.2,0.2-0.2h1.8c0.1,0,0.1,0,0.2,0.1l10.4,12.9V72.9c0-0.1,0.1-0.2,0.2-0.2h1.9c0.1,0,0.2,0.1,0.2,0.2v16.6
			C118.6,89.7,118.6,89.8,118.4,89.8z"/>
	</g>
</g>
<g>
	<g>
		<path class="st3" d="M125.3,89.8h-1.9c-0.1,0-0.2-0.1-0.2-0.2V72.9c0-0.1,0.1-0.2,0.2-0.2h1.9c0.1,0,0.2,0.1,0.2,0.2v16.6
			C125.6,89.7,125.5,89.8,125.3,89.8z"/>
	</g>
</g>
<g>
	<g>
		<path class="st3" d="M99.8,89.8h-1.9c-0.1,0-0.2-0.1-0.2-0.2V74c0-0.1,0.1-0.2,0.2-0.2h1.9c0.1,0,0.2,0.1,0.2,0.2v15.5
			C100,89.7,99.9,89.8,99.8,89.8z"/>
	</g>
</g>
<g>
	<g>
		<path class="st3" d="M137.7,90.1c-1.3,0-2.4-0.2-3.5-0.7c-1.1-0.5-2-1.1-2.8-1.9c-0.8-0.8-1.4-1.7-1.8-2.8
			c-0.4-1.1-0.7-2.2-0.7-3.5c0-1.2,0.2-2.4,0.7-3.4c0.4-1.1,1.1-2,1.8-2.8c0.8-0.8,1.7-1.4,2.8-1.9c1.1-0.5,2.3-0.7,3.5-0.7
			c0.8,0,1.5,0.1,2.1,0.2c0.6,0.1,1.2,0.3,1.8,0.5c0.5,0.2,1.1,0.5,1.5,0.9c0.5,0.3,0.9,0.7,1.3,1.1c0,0,0.1,0.1,0.1,0.1
			c0,0.1,0,0.1-0.1,0.1l-1.3,1.4c-0.1,0.1-0.2,0.1-0.3,0c-0.7-0.6-1.5-1.2-2.3-1.6c-0.8-0.4-1.8-0.6-2.9-0.6c-0.9,0-1.8,0.2-2.5,0.5
			c-0.8,0.3-1.5,0.8-2,1.4c-0.6,0.6-1,1.3-1.3,2.1c-0.3,0.8-0.5,1.7-0.5,2.6c0,0.9,0.2,1.8,0.5,2.6c0.3,0.8,0.8,1.5,1.3,2.1
			c0.6,0.6,1.3,1.1,2,1.4c0.8,0.3,1.6,0.5,2.5,0.5c1.1,0,2.1-0.2,2.9-0.6c0.8-0.4,1.6-1,2.4-1.7c0.1-0.1,0.2-0.1,0.3,0l1.3,1.2
			c0,0,0.1,0.1,0.1,0.1c0,0.1,0,0.1-0.1,0.1c-0.4,0.4-0.9,0.9-1.4,1.2c0,0,0,0,0,0c-0.5,0.4-1,0.7-1.6,0.9c-0.6,0.3-1.2,0.5-1.8,0.6
			C139.2,90,138.5,90.1,137.7,90.1z M143.1,88.1L143.1,88.1L143.1,88.1z"/>
	</g>
</g>
<g>
	<g>
		<path class="st3" d="M163.3,89.8h-2.1c-0.1,0-0.2,0-0.2-0.1l-1.9-4.3h-9l-2,4.3c0,0.1-0.1,0.1-0.2,0.1h-2c-0.1,0-0.1,0-0.2-0.1
			c0-0.1,0-0.1,0-0.2l7.8-16.8c0-0.1,0.1-0.1,0.2-0.1h1.8c0.1,0,0.2,0,0.2,0.1l7.8,16.8c0,0.1,0,0.1,0,0.2
			C163.4,89.7,163.4,89.8,163.3,89.8z M151,83.3h7.1l-3.5-7.8L151,83.3z"/>
	</g>
</g>
<g>
	<g>
		<path class="st3" d="M171.8,90c-1.4,0-2.7-0.2-3.8-0.7c-1.1-0.4-2.2-1.1-3.3-2c-0.1-0.1-0.1-0.2,0-0.3l1.2-1.4
			c0,0,0.1-0.1,0.1-0.1c0.1,0,0.1,0,0.2,0.1c0.9,0.8,1.8,1.4,2.6,1.7c0.9,0.4,1.9,0.6,3.1,0.6c1.1,0,2-0.3,2.6-0.7
			c0.6-0.5,1-1.1,1-1.9c0-0.4-0.1-0.7-0.2-1c-0.1-0.3-0.3-0.5-0.6-0.8c-0.3-0.2-0.7-0.5-1.3-0.7c-0.6-0.2-1.3-0.4-2.2-0.6
			c-1-0.2-1.8-0.5-2.6-0.7c-0.7-0.3-1.4-0.6-1.8-1c-0.5-0.4-0.9-0.9-1.1-1.4c-0.2-0.5-0.4-1.2-0.4-1.9c0-0.7,0.1-1.3,0.4-1.9
			c0.3-0.6,0.7-1.1,1.2-1.5c0.5-0.4,1.1-0.7,1.8-1c0.7-0.2,1.5-0.4,2.3-0.4c1.3,0,2.4,0.2,3.3,0.5c0.9,0.3,1.9,0.9,2.8,1.5
			c0,0,0.1,0.1,0.1,0.1c0,0.1,0,0.1,0,0.2l-1.1,1.4c0,0-0.1,0.1-0.1,0.1c-0.1,0-0.1,0-0.2,0c-0.8-0.6-1.6-1.1-2.3-1.3
			c-0.8-0.3-1.6-0.4-2.4-0.4c-0.5,0-1,0.1-1.4,0.2c-0.4,0.1-0.8,0.3-1.1,0.5c-0.3,0.2-0.5,0.5-0.7,0.8c-0.2,0.3-0.2,0.6-0.2,1
			c0,0.4,0.1,0.7,0.2,1c0,0,0,0,0,0c0.1,0.3,0.3,0.5,0.6,0.8c0.3,0.2,0.8,0.5,1.4,0.7c0.6,0.2,1.4,0.4,2.3,0.6
			c1.9,0.4,3.4,1,4.3,1.8c0.9,0.8,1.4,1.8,1.4,3.2c0,0.7-0.2,1.4-0.5,2c-0.3,0.6-0.7,1.1-1.2,1.6c-0.5,0.4-1.2,0.8-1.9,1
			C173.4,89.9,172.6,90,171.8,90z"/>
	</g>
</g>
<g>
	<g>
		<g>
			<path class="st2" d="M98.6,34c-1.8-0.1-3.5-0.5-4.9-1.1c-1.5-0.7-2.7-1.6-3.7-2.7c-1-1.1-1.7-2.4-2.2-3.9
				c-0.5-1.4-0.7-2.9-0.6-4.5c0-0.9,0.8-1.7,1.7-1.6c0.9,0,1.7,0.8,1.6,1.7c0,1.2,0.1,2.3,0.4,3.3c0.3,1,0.8,1.9,1.5,2.7
				c0.7,0.8,1.5,1.4,2.6,1.9c1,0.5,2.3,0.8,3.6,0.8c1.4,0.1,2.6-0.1,3.7-0.5c1.1-0.4,2-1,2.7-1.7c0.7-0.7,1.7-0.6,2.4,0
				c0.7,0.7,0.6,1.7,0,2.4c-1.1,1-2.4,1.9-3.8,2.4C102.1,33.8,100.4,34.1,98.6,34z"/>
		</g>
	</g>
</g>
<g>
	<g>
		<circle class="st2" cx="95.6" cy="17.2" r="2"/>
	</g>
</g>
<g>
	<g>
		<circle class="st2" cx="105.1" cy="21.1" r="2"/>
	</g>
</g>
<g>
	<g>
		<path class="st3" d="M97.8,72.2c0-0.1,0-0.1,0.1-0.2l2-1.7c0,0,0.1-0.1,0.2,0l1.7,0.8c0.1,0,0.1,0.1,0.1,0.1c0,0.1,0,0.1-0.1,0.2
			l-2.2,1.7c0,0-0.1,0-0.1,0c0,0-0.1,0-0.1,0c-0.7-0.3-1.2-0.6-1.5-0.8C97.9,72.4,97.8,72.3,97.8,72.2z"/>
	</g>
</g>
</svg>
